<?xml version="1.0" encoding="UTF-8"?>
<svg xmlns="http://www.w3.org/2000/svg" xmlns:xlink="http://www.w3.org/1999/xlink" width="393.75pt" height="393.74999pt" viewBox="0 0 393.75 393.74999" version="1.2">
<defs>
<clipPath id="clip1">
  <path d="M 3.914062 165 L 64 165 L 64 226 L 3.914062 226 Z M 3.914062 165 "/>
</clipPath>
<clipPath id="clip2">
  <path d="M 327 165 L 387.914062 165 L 387.914062 226 L 327 226 Z M 327 165 "/>
</clipPath>
<clipPath id="clip3">
  <path d="M 165 327 L 226 327 L 226 387.75 L 165 387.75 Z M 165 327 "/>
</clipPath>
<clipPath id="clip4">
  <path d="M 166 3.75 L 227 3.75 L 227 64 L 166 64 Z M 166 3.75 "/>
</clipPath>
<clipPath id="clip5">
  <path d="M 179 170 L 222 170 L 222 216.765625 L 179 216.765625 Z M 179 170 "/>
</clipPath>
<clipPath id="clip6">
  <path d="M 170.277344 159.765625 L 230.277344 159.765625 L 230.277344 190 L 170.277344 190 Z M 170.277344 159.765625 "/>
</clipPath>
</defs>
<g id="surface1">
<path style=" stroke:none;fill-rule:nonzero;fill:rgb(100%,87.059021%,34.899902%);fill-opacity:1;" d="M 93.324219 296.085938 C 122.074219 317.933594 158.492188 325.703125 193.558594 317.410156 C 223.605469 310.289062 262.640625 294.746094 279.582031 261.054688 L 279.371094 260.160156 C 265.523438 277.726562 228.371094 304.359375 223.296875 271.613281 C 219.269531 245.679688 219.628906 236.433594 220.460938 225.929688 C 220.695312 223 223.015625 220.671875 225.945312 220.429688 C 236.445312 219.554688 248.003906 218.726562 288.523438 223.261719 C 304.066406 225.003906 314.648438 239.785156 311.503906 255.085938 C 308.355469 270.328125 303.015625 285.074219 295.84375 298.433594 L 296.25 298.339844 C 318.101562 269.585938 325.871094 233.175781 317.566406 198.105469 C 310.457031 168.066406 294.914062 129.03125 261.21875 112.085938 L 260.320312 112.296875 C 277.960938 126.195312 304.484375 163.296875 271.78125 168.363281 C 245.585938 172.445312 236.289062 171.996094 226.09375 171.199219 C 223.164062 170.964844 220.835938 168.644531 220.59375 165.714844 C 219.800781 156.175781 218.769531 144.671875 223.425781 103.140625 C 225.164062 87.636719 239.921875 76.996094 255.25 80.160156 C 270.480469 83.300781 285.230469 88.644531 298.59375 95.820312 L 298.5 95.410156 C 269.753906 73.558594 233.367188 65.796875 198.269531 74.089844 C 168.230469 81.210938 129.191406 96.753906 112.25 130.445312 L 112.460938 131.339844 C 121.691406 119.625 133.386719 110.710938 145.839844 106.121094 C 158.207031 101.554688 166.285156 105.554688 168.53125 119.886719 C 172.589844 145.953125 172.175781 155.21875 171.367188 165.570312 C 171.128906 168.5 168.808594 170.828125 165.878906 171.070312 C 155.621094 171.925781 144 172.796875 103.300781 168.238281 C 87.820312 166.503906 77.15625 151.769531 80.332031 136.414062 C 83.46875 121.179688 88.808594 106.425781 95.980469 93.066406 L 95.574219 93.160156 C 73.726562 121.910156 65.957031 158.320312 74.261719 193.394531 C 81.375 223.433594 96.921875 262.476562 130.609375 279.414062 L 131.503906 279.203125 C 119.785156 269.96875 110.871094 258.273438 106.285156 245.824219 C 101.75 233.515625 105.660156 225.371094 120.050781 223.136719 C 146.175781 219.058594 155.445312 219.496094 165.734375 220.300781 C 168.664062 220.535156 170.996094 222.855469 171.234375 225.785156 C 171.59375 230.074219 171.839844 234.128906 171.914062 237.628906 C 172.183594 251.210938 170.148438 272.714844 168.40625 288.359375 C 166.644531 303.964844 151.800781 314.496094 136.582031 311.339844 C 121.34375 308.199219 106.59375 302.855469 93.230469 295.679688 Z M 165.789062 332.660156 C 136.535156 332.660156 107.933594 322.875 84.265625 304.25 C 82.105469 302.550781 82.445312 302.214844 78.269531 284.589844 C 77 279.28125 82.945312 275.199219 87.457031 278.226562 C 102.539062 288.359375 120.367188 295.738281 139.003906 299.585938 C 147.421875 301.324219 155.519531 295.558594 156.476562 287.019531 C 158.335938 270.394531 160.617188 247.699219 159.660156 231.921875 C 144.808594 231.15625 117.886719 234.921875 116.570312 236.523438 C 116.570312 236.523438 116.105469 237.773438 117.546875 241.675781 C 122.523438 255.199219 134.355469 268.273438 149.191406 276.664062 C 153.921875 279.328125 152.933594 286.460938 147.621094 287.71875 C 129.832031 291.933594 129.855469 292.335938 127.367188 291.179688 C 96.246094 276.570312 73.84375 243.714844 62.585938 196.160156 C 53.273438 156.835938 62.320312 115.984375 87.410156 84.101562 C 89.089844 81.960938 89.316406 82.308594 107.070312 78.105469 C 112.324219 76.828125 116.484375 82.738281 113.433594 87.289062 C 103.308594 102.371094 95.925781 120.195312 92.082031 138.84375 C 90.339844 147.261719 96.105469 155.355469 104.640625 156.308594 C 121.457031 158.199219 143.765625 160.464844 159.746094 159.488281 C 160.503906 144.835938 156.78125 117.800781 155.140625 116.40625 C 147.148438 116.40625 127.300781 127.261719 115.011719 149.023438 C 112.304688 153.785156 105.199219 152.746094 103.945312 147.453125 C 99.730469 129.648438 99.332031 129.664062 100.484375 127.199219 C 115.09375 96.078125 147.949219 73.679688 195.503906 62.421875 C 234.824219 53.101562 275.675781 62.15625 307.558594 87.246094 C 308.625 88.085938 309.375 89.261719 309.683594 90.578125 L 313.554688 106.910156 C 314.816406 112.183594 308.921875 116.316406 304.371094 113.273438 C 289.285156 103.140625 271.460938 95.753906 252.820312 91.914062 C 244.410156 90.175781 236.308594 95.941406 235.355469 104.480469 C 233.53125 120.695312 231.179688 144.015625 232.171875 159.578125 C 246.871094 160.335938 273.867188 156.613281 275.261719 154.976562 C 275.253906 154.976562 275.726562 153.746094 274.285156 149.824219 C 269.296875 136.300781 257.46875 123.226562 242.628906 114.835938 C 237.90625 112.171875 238.890625 105.039062 244.207031 103.78125 C 261.960938 99.574219 261.964844 99.148438 264.464844 100.320312 C 295.585938 114.929688 317.984375 147.789062 329.242188 195.339844 C 338.554688 234.660156 329.511719 275.511719 304.414062 307.398438 C 303.574219 308.464844 302.394531 309.214844 301.082031 309.53125 L 284.753906 313.394531 C 279.53125 314.675781 275.324219 308.78125 278.390625 304.210938 C 288.515625 289.140625 295.898438 271.304688 299.75 252.65625 C 301.492188 244.25 295.742188 236.144531 287.183594 235.191406 C 269.984375 233.261719 248.089844 231.03125 232.085938 232.003906 C 231.324219 246.546875 235.035156 273.746094 236.691406 275.09375 C 244.925781 275.09375 264.695312 263.929688 276.832031 242.476562 C 279.515625 237.695312 286.636719 238.773438 287.886719 244.046875 C 292.101562 261.851562 292.5 261.839844 291.34375 264.300781 C 269.128906 311.613281 204.601562 332.660156 165.789062 332.660156 "/>
<g clip-path="url(#clip1)" clip-rule="nonzero">
<path style=" stroke:none;fill-rule:nonzero;fill:rgb(100%,87.059021%,34.899902%);fill-opacity:1;" d="M 33.914062 177.625 C 23.992188 177.625 15.914062 185.699219 15.914062 195.625 C 15.914062 205.550781 23.992188 213.625 33.914062 213.625 C 43.839844 213.625 51.914062 205.550781 51.914062 195.625 C 51.914062 185.699219 43.839844 177.625 33.914062 177.625 Z M 33.914062 225.625 C 17.375 225.625 3.914062 212.164062 3.914062 195.625 C 3.914062 179.085938 17.375 165.625 33.914062 165.625 C 50.457031 165.625 63.914062 179.085938 63.914062 195.625 C 63.914062 212.164062 50.457031 225.625 33.914062 225.625 "/>
</g>
<g clip-path="url(#clip2)" clip-rule="nonzero">
<path style=" stroke:none;fill-rule:nonzero;fill:rgb(100%,87.059021%,34.899902%);fill-opacity:1;" d="M 357.914062 177.875 C 347.992188 177.875 339.914062 185.949219 339.914062 195.875 C 339.914062 205.800781 347.992188 213.875 357.914062 213.875 C 367.839844 213.875 375.914062 205.800781 375.914062 195.875 C 375.914062 185.949219 367.839844 177.875 357.914062 177.875 Z M 357.914062 225.875 C 341.375 225.875 327.914062 212.414062 327.914062 195.875 C 327.914062 179.335938 341.375 165.875 357.914062 165.875 C 374.457031 165.875 387.914062 179.335938 387.914062 195.875 C 387.914062 212.414062 374.457031 225.875 357.914062 225.875 "/>
</g>
<g clip-path="url(#clip3)" clip-rule="nonzero">
<path style=" stroke:none;fill-rule:nonzero;fill:rgb(100%,87.059021%,34.899902%);fill-opacity:1;" d="M 195.785156 339.75 C 185.859375 339.75 177.785156 347.824219 177.785156 357.75 C 177.785156 367.675781 185.859375 375.75 195.785156 375.75 C 205.710938 375.75 213.785156 367.675781 213.785156 357.75 C 213.785156 347.824219 205.710938 339.75 195.785156 339.75 Z M 195.785156 387.75 C 179.246094 387.75 165.785156 374.289062 165.785156 357.75 C 165.785156 341.210938 179.246094 327.75 195.785156 327.75 C 212.324219 327.75 225.785156 341.210938 225.785156 357.75 C 225.785156 374.289062 212.324219 387.75 195.785156 387.75 "/>
</g>
<g clip-path="url(#clip4)" clip-rule="nonzero">
<path style=" stroke:none;fill-rule:nonzero;fill:rgb(100%,87.059021%,34.899902%);fill-opacity:1;" d="M 196.039062 15.75 C 186.117188 15.75 178.039062 23.824219 178.039062 33.75 C 178.039062 43.675781 186.117188 51.75 196.039062 51.75 C 205.964844 51.75 214.035156 43.675781 214.035156 33.75 C 214.035156 23.824219 205.964844 15.75 196.039062 15.75 Z M 196.039062 63.75 C 179.5 63.75 166.039062 50.289062 166.039062 33.75 C 166.039062 17.210938 179.5 3.75 196.039062 3.75 C 212.582031 3.75 226.035156 17.210938 226.035156 33.75 C 226.035156 50.289062 212.582031 63.75 196.039062 63.75 "/>
</g>
<g clip-path="url(#clip5)" clip-rule="nonzero">
<path style=" stroke:none;fill-rule:nonzero;fill:rgb(25.099182%,84.709167%,84.709167%);fill-opacity:1;" d="M 221.324219 188.742188 Z M 221.324219 188.742188 L 200.285156 170.015625 L 179.230469 188.75 L 179.230469 215.515625 C 179.230469 216.207031 179.785156 216.761719 180.472656 216.761719 L 193.632812 216.761719 L 193.632812 205.027344 C 193.632812 204.335938 194.183594 203.777344 194.871094 203.777344 L 205.683594 203.777344 C 206.371094 203.777344 206.921875 204.335938 206.921875 205.027344 L 206.921875 216.761719 L 220.085938 216.761719 C 220.773438 216.761719 221.324219 216.207031 221.324219 215.515625 L 221.324219 188.738281 Z M 179.230469 188.75 Z M 179.230469 188.75 "/>
</g>
<g clip-path="url(#clip6)" clip-rule="nonzero">
<path style=" stroke:none;fill-rule:nonzero;fill:rgb(25.099182%,84.709167%,84.709167%);fill-opacity:1;" d="M 200.160156 159.765625 L 170.300781 186.335938 L 173.445312 189.902344 L 200.285156 166.019531 L 227.113281 189.902344 L 230.253906 186.335938 L 200.398438 159.765625 L 200.285156 159.902344 Z M 200.160156 159.765625 "/>
</g>
<path style=" stroke:none;fill-rule:nonzero;fill:rgb(25.099182%,84.709167%,84.709167%);fill-opacity:1;" d="M 179.230469 163.589844 L 186.800781 163.589844 L 186.734375 168.097656 L 179.230469 174.910156 Z M 179.230469 163.589844 "/>
</g>
</svg>
